<?xml version="1.0" encoding="utf-8"?>
<!-- Generator: Adobe Illustrator 24.0.1, SVG Export Plug-In . SVG Version: 6.00 Build 0)  -->
<svg version="1.1" id="Capa_1" xmlns="http://www.w3.org/2000/svg" xmlns:xlink="http://www.w3.org/1999/xlink" x="0px" y="0px"
	 viewBox="0 0 469.3 469.3" style="enable-background:new 0 0 469.3 469.3;" xml:space="preserve">
<style type="text/css">
	.st0{fill:#2A63FF;}
</style>
<g>
	<g>
		<g>
			<path class="st0" d="M202.7,0h-128C33.5,0,0,33.5,0,74.7v320c0,41.2,33.5,74.7,74.7,74.7h128c5.9,0,10.7-4.8,10.7-10.7v-448
				C213.3,4.8,208.6,0,202.7,0z M106.7,192c-29.4,0-53.3-23.9-53.3-53.3s23.9-53.3,53.3-53.3s53.3,23.9,53.3,53.3
				S136.1,192,106.7,192z"/>
			<path class="st0" d="M394.7,0h-128C260.8,0,256,4.8,256,10.7v448c0,5.9,4.8,10.7,10.7,10.7h128c41.2,0,74.7-33.5,74.7-74.7v-320
				C469.3,33.5,435.8,0,394.7,0z M362.7,320c-29.4,0-53.3-23.9-53.3-53.3s23.9-53.3,53.3-53.3c29.4,0,53.3,23.9,53.3,53.3
				S392.1,320,362.7,320z"/>
		</g>
	</g>
</g>
</svg>
